<!-- icon666.com - MILLIONS vector ICONS FREE --><svg id="Capa_1" enable-background="new 0 0 511.969 511.969" viewBox="0 0 511.969 511.969" xmlns="http://www.w3.org/2000/svg"><g><g><circle cx="366.415" cy="141.479" fill="#98eaf9" r="131.071"></circle></g><g><circle cx="417.422" cy="148.493" fill="#fff" r="33.731"></circle></g><g><circle cx="340.061" cy="86.073" fill="#fff" r="22.683"></circle></g><g><circle cx="321.376" cy="175.598" fill="#fff" r="28.969"></circle></g><g><circle cx="181.053" cy="326.842" fill="#fff" r="131.071"></circle></g><g><path d="m134.401 252.234h44.347v44.347h-44.347z" fill="#868eaf"></path></g><g><path d="m166.586 340.842h60.261v60.261h-60.261z" fill="#868eaf"></path></g><g><path d="m509.9 464.028c2.846-3.673 2.752-9.014-.261-12.568l-21.981-26.022c-3.565-4.22-9.875-4.749-14.093-1.187-4.219 3.564-4.75 9.874-1.187 14.093l8.084 9.569h-227.078c41.142-24.672 68.74-69.707 68.74-121.071 0-19.816-4.115-38.687-11.522-55.814 17.127 7.407 35.997 11.522 55.813 11.522 59.462 0 112.857-37.606 132.865-93.579 1.859-5.2-.85-10.924-6.05-12.782-5.195-1.86-10.924.849-12.782 6.05-17.172 48.037-62.998 80.312-114.033 80.312-66.759 0-121.071-54.312-121.071-121.07s54.312-121.073 121.071-121.073c51.753 0 97.79 32.874 114.559 81.803 1.791 5.225 7.476 8.009 12.702 6.218 5.225-1.791 8.008-7.478 6.218-12.702-19.539-57.013-73.18-95.318-133.479-95.318-77.787 0-141.071 63.284-141.071 141.071 0 19.816 4.115 38.686 11.522 55.813-17.127-7.407-35.997-11.522-55.813-11.522-51.346 0-96.367 27.578-121.045 68.696v-203.627l9.569 8.083c4.163 3.517 10.578 2.974 14.092-1.187 3.564-4.219 3.033-10.528-1.186-14.093l-26.022-21.981c-3.676-3.104-9.23-3.104-12.906 0l-26.023 21.982c-4.219 3.564-4.75 9.874-1.186 14.093 3.563 4.219 9.873 4.748 14.092 1.187l9.569-8.084v397.074h-30.007c-5.523 0-10 4.478-10 10s4.477 10 10 10h30.008v33.647c0 5.522 4.477 10 10 10s10-4.478 10-10v-33.647h420.454l-8.083 9.568c-3.563 4.219-3.032 10.528 1.187 14.093 4.164 3.517 10.578 2.974 14.093-1.187l21.981-26.021c.087-.113.174-.226.26-.339zm-328.847-258.257c66.759 0 121.071 54.312 121.071 121.071s-54.312 121.071-121.071 121.071c-66.064 0-119.931-53.191-121.045-118.994v-4.154c1.113-65.804 54.98-118.994 121.045-118.994zm-121.045 242.142v-48.696c11.979 19.959 28.75 36.724 48.714 48.696z"></path><path d="m421.825 104.985c-18.241-1.85-36.205 8.281-43.999 24.895-2.098 4.472-3.414 9.298-3.912 14.211-2.428 23.99 15.114 45.483 39.104 47.912 23.683 2.39 45.515-15.419 47.912-39.105 2.402-23.733-15.397-45.513-39.105-47.913zm19.207 45.898c-1.303 12.867-13.125 22.524-26 21.221-12.866-1.303-22.524-13.125-21.22-26 1.303-12.869 13.122-22.518 25.999-21.221 12.867 1.303 22.525 13.125 21.221 26z"></path><path d="m372.744 86.073c0-18.021-14.662-32.684-32.684-32.684s-32.683 14.662-32.683 32.684 14.661 32.683 32.683 32.683 32.684-14.661 32.684-32.683zm-32.683 12.683c-6.993 0-12.683-5.689-12.683-12.683s5.689-12.684 12.683-12.684 12.684 5.689 12.684 12.684c-.001 6.994-5.69 12.683-12.684 12.683z"></path><path d="m282.407 175.599c0 21.487 17.481 38.969 38.969 38.969s38.969-17.481 38.969-38.969-17.481-38.97-38.969-38.97-38.969 17.482-38.969 38.97zm57.938 0c0 10.459-8.51 18.969-18.969 18.969s-18.969-8.51-18.969-18.969c0-10.46 8.51-18.97 18.969-18.97s18.969 8.51 18.969 18.97z"></path><path d="m134.401 306.581h44.347c5.523 0 10-4.478 10-10v-44.347c0-5.522-4.477-10-10-10h-44.347c-5.523 0-10 4.478-10 10v44.347c0 5.523 4.477 10 10 10zm10-44.346h24.347v24.347h-24.347z"></path><path d="m156.586 340.842v60.261c0 5.522 4.477 10 10 10h60.261c5.523 0 10-4.478 10-10v-60.261c0-5.522-4.477-10-10-10h-60.261c-5.523 0-10 4.478-10 10zm20 10h40.261v40.261h-40.261z"></path><path d="m495.53 131.674c-5.336 1.082-8.919 6.407-7.851 11.761 1.065 5.338 6.419 8.916 11.76 7.85 5.332-1.065 8.93-6.421 7.851-11.76-1.078-5.331-6.41-8.929-11.76-7.851z"></path></g></g></svg>