<!-- icon666.com - MILLIONS vector ICONS FREE --><svg id="Capa_1" enable-background="new 0 0 512.002 512.002" viewBox="0 0 512.002 512.002" xmlns="http://www.w3.org/2000/svg"><g><g><path d="m324.219 28.437v176.488h-106.468c-5.787 0-11.369-2.147-15.664-6.034l-52.284-47.334c-4.284-3.887-9.866-6.044-15.664-6.044h-67.882v-117.076z" fill="#fff"></path></g><g><path d="m433.782 131.164v143.626h-53.352l-.021-143.626c0-14.736 11.945-26.692 26.693-26.692 16.261 1.534 25.155 10.431 26.68 26.692z" fill="#ff7a7a"></path></g><g><path d="m502 463.795s-35.432 19.769-96.02 19.769c-64.976 0-98.47-19.769-98.47-19.769 12.554-20.221 12.639-55.104 12.639-55.104v-85.635c0-26.656 21.61-48.266 48.266-48.266h74.922c26.656 0 48.266 21.61 48.266 48.266v85.635c.001 23.719 10.397 55.104 10.397 55.104z" fill="#ced3dd"></path></g><g><path d="m491.604 323.056v17.21h-171.454v-17.21c0-26.656 21.61-48.266 48.266-48.266h74.922c26.656 0 48.266 21.61 48.266 48.266z" fill="#868eaf"></path></g><g><path d="m318.25 430.624c1.87-12.18 1.9-21.93 1.9-21.93v-85.64c0-26.65 21.61-48.26 48.27-48.26h12.01v-46.53c0-12.89-10.44-23.34-23.33-23.34h-139.35c-5.79 0-11.37-2.15-15.66-6.03l-52.29-47.34c-4.28-3.88-9.86-6.04-15.66-6.04h-100.81c-12.84 0-23.28 10.38-23.33 23.22v238.44c-.06 12.94 10.36 23.45 23.3 23.45z" fill="#ffce69"></path></g><g><path d="m511.493 460.65c-.099-.299-9.889-30.106-9.889-51.959v-85.635c0-31.979-25.899-58.014-57.822-58.255v-133.636c0-.312-.015-.623-.044-.934-1.974-21.047-14.652-33.73-35.698-35.715-.312-.029-.625-.044-.938-.044-20.232 0-36.692 16.46-36.692 36.692v66.54c-4.08-1.784-8.579-2.78-13.309-2.78h-22.882v-166.487c0-5.522-4.477-10-10-10h-257.962c-5.523 0-10 4.478-10 10v107.077h-22.927c-18.307 0-33.258 14.885-33.33 33.22v238.394c-.085 18.23 15.057 33.497 33.3 33.497h90.598c5.523 0 10-4.478 10-10s-4.477-10-10-10h-90.597c-7.335 0-13.334-6.144-13.3-13.45v-238.402c.029-7.311 6.008-13.259 13.33-13.259h100.81c3.286 0 6.518 1.249 8.951 3.456l52.285 47.335c6.142 5.559 14.088 8.62 22.375 8.62l139.35-.001c7.151 0 12.988 5.66 13.309 12.733v37.132h-1.993c-32.128 0-58.266 26.139-58.266 58.267v85.61c0 .05-.001.108-.001.159-.012.893-.099 5.482-.721 11.799h-97.546c-5.523 0-10 4.478-10 10s4.477 10 10 10h94.162c-1.658 6.558-3.933 12.91-7.029 17.896-2.917 4.699-1.341 11.081 3.413 13.886 9.052 5.346 19.57 8.722 29.606 11.588 23.968 6.844 49.068 9.57 73.947 9.57 62.471 0 99.353-20.178 100.892-21.037 4.188-2.338 6.127-7.322 4.618-11.877zm-435.236-422.213h237.962v156.487h-96.469c-3.315 0-6.494-1.225-8.948-3.443l-52.286-47.336c-6.091-5.521-14.157-8.633-22.377-8.633h-57.882zm405.347 284.619v7.21h-151.453v-7.212c0-21.097 17.167-38.26 38.27-38.26l74.917-.005c21.1.001 38.266 17.167 38.266 38.267zm-74.943-208.578c10.975 1.167 15.973 6.184 17.121 17.18v133.132h-33.342l-.031-133.625c.001-9.057 7.25-16.452 16.252-16.687zm42.493 355.43c-4.221-18.787-5.076-52.857-5.01-66.115.027-5.522-4.427-10.022-9.95-10.05-.017-.001-.034-.001-.051-.001-5.499 0-9.971 4.443-9.999 9.949-.026 5.077-.043 43.806 5.149 68.832-15.215 1.372-30.561 1.365-45.789.183 5.185-25.095 5.263-63.893 5.249-68.99-.015-5.514-4.488-9.974-10-9.974-.008 0-.018 0-.026 0-5.522.015-9.988 4.503-9.975 10.025.033 13.381-.905 47.809-5.176 66.629-14.495-2.256-28.955-5.709-42.554-11.287 6.406-15.641 9.064-33.559 9.128-50.415v-58.428h151.453v58.425c0 17.482 5.096 38.285 8.325 49.711-7.76 3.246-21.634 8.158-40.774 11.506z"></path><path d="m275.54 87.387c0-5.522-4.477-10-10-10h-139.72c-5.523 0-10 4.478-10 10s4.477 10 10 10h139.72c5.523 0 10-4.477 10-10z"></path><path d="m265.54 136.617h-51.116c-5.523 0-10 4.478-10 10s4.477 10 10 10h51.116c5.523 0 10-4.478 10-10s-4.477-10-10-10z"></path><path d="m178.11 426.801c-3.399-8.297-15.635-7.956-18.646.455-1.377 3.847-.201 8.264 2.887 10.932 3.357 2.902 8.387 3.221 12.08.752 3.912-2.616 5.493-7.789 3.679-12.139z"></path></g></g></svg>