<!-- icon666.com - MILLIONS vector ICONS FREE --><svg id="Capa_1" enable-background="new 0 0 512 512" viewBox="0 0 512 512" xmlns="http://www.w3.org/2000/svg"><g><g><g><circle cx="65.865" cy="85.602" fill="#98eaf9" r="55.865"></circle></g><g><circle cx="256" cy="85.602" fill="#c193da" r="55.865"></circle></g><g><circle cx="446.135" cy="85.602" fill="#98eaf9" r="55.865"></circle></g><g><circle cx="65.865" cy="270.272" fill="#c193da" r="55.865"></circle></g><g><circle cx="256" cy="270.272" fill="#98eaf9" r="55.865"></circle></g><g><circle cx="446.135" cy="270.272" fill="#c193da" r="55.865"></circle></g><g><path d="m335.85 482.263h-159.7c-8.404 0-15.217-6.813-15.217-15.217v-63.39c0-8.404 6.813-15.217 15.217-15.217h159.7c8.404 0 15.217 6.813 15.217 15.217v63.39c0 8.404-6.812 15.217-15.217 15.217z" fill="#fff"></path></g></g><g><path d="m456.135 205.165v-54.456c31.59-4.832 55.865-32.188 55.865-65.106 0-36.318-29.547-65.865-65.865-65.865s-65.865 29.547-65.865 65.865c0 14.215 4.541 27.38 12.228 38.155l-41.431 40.24-41.431-40.24c7.687-10.775 12.228-23.94 12.228-38.155 0-36.318-29.547-65.865-65.865-65.865s-65.865 29.547-65.865 65.865c0 14.215 4.541 27.38 12.228 38.155l-41.431 40.24-41.431-40.24c7.687-10.775 12.228-23.94 12.228-38.155 0-36.318-29.547-65.865-65.865-65.865-36.316-.001-65.863 29.546-65.863 65.865 0 32.919 24.275 60.275 55.865 65.107v54.456c-31.59 4.831-55.865 32.187-55.865 65.106s24.275 60.275 55.865 65.107v82.947c0 14.901 12.123 27.024 27.023 27.024h68.044v21.695c0 13.905 11.312 25.217 25.217 25.217h159.701c13.905 0 25.217-11.312 25.217-25.217v-21.695h68.043c14.901 0 27.024-12.123 27.024-27.024v-82.946c31.59-4.832 55.865-32.188 55.865-65.107s-24.274-60.276-55.864-65.108zm-10-165.428c25.29 0 45.865 20.575 45.865 45.865s-20.575 45.865-45.865 45.865-45.865-20.575-45.865-45.865 20.575-45.865 45.865-45.865zm-39.708 98.373c8.529 6.466 18.669 10.911 29.708 12.599v54.456c-11.039 1.689-21.179 6.134-29.708 12.6l-41.006-39.827zm-150.427-98.373c25.29 0 45.865 20.575 45.865 45.865s-20.575 45.865-45.865 45.865-45.865-20.575-45.865-45.865 20.575-45.865 45.865-45.865zm-39.708 98.373c11.049 8.376 24.806 13.358 39.708 13.358s28.659-4.981 39.708-13.358l41.007 39.828-41.006 39.828c-11.049-8.376-24.806-13.358-39.708-13.358s-28.66 4.982-39.708 13.358l-41.006-39.828zm-110.719 79.655c-8.529-6.466-18.669-10.911-29.708-12.6v-54.456c11.039-1.689 21.179-6.134 29.708-12.599l41.006 39.828zm-85.573-132.162c0-25.29 20.575-45.865 45.865-45.865s45.865 20.575 45.865 45.865-20.575 45.865-45.865 45.865-45.865-20.575-45.865-45.865zm0 184.669c0-25.29 20.575-45.865 45.865-45.865s45.865 20.575 45.865 45.865-20.575 45.865-45.865 45.865-45.865-20.575-45.865-45.865zm321.067 196.774c0 2.876-2.34 5.217-5.217 5.217h-159.701c-2.876 0-5.217-2.34-5.217-5.217v-63.39c0-2.877 2.34-5.217 5.217-5.217h159.701c2.876 0 5.217 2.34 5.217 5.217zm88.044-41.695h-68.043v-21.695c0-13.905-11.312-25.217-25.217-25.217h-159.702c-13.905 0-25.217 11.312-25.217 25.217v21.695h-68.043c-3.873 0-7.023-3.151-7.023-7.024v-82.947c31.589-4.832 55.865-32.188 55.865-65.107 0-14.215-4.541-27.38-12.228-38.155l41.43-40.24 41.43 40.24c-7.687 10.775-12.228 23.94-12.228 38.155 0 16.898 6.404 32.972 18.034 45.258 3.796 4.011 10.125 4.186 14.137.389 4.011-3.796 4.185-10.125.389-14.137-8.099-8.557-12.559-19.748-12.559-31.51 0-25.29 20.575-45.865 45.865-45.865s45.865 20.575 45.865 45.865c0 12.033-4.636 23.409-13.054 32.03-3.858 3.951-3.782 10.283.169 14.141 1.945 1.899 4.466 2.845 6.985 2.845 2.6 0 5.197-1.007 7.156-3.014 12.087-12.379 18.744-28.716 18.744-46.002 0-14.215-4.541-27.38-12.228-38.155l41.43-40.24 41.43 40.24c-7.687 10.775-12.228 23.94-12.228 38.155 0 32.919 24.275 60.275 55.865 65.107v82.947c0 3.873-3.151 7.024-7.024 7.024zm17.024-109.213c-25.29 0-45.865-20.575-45.865-45.865s20.575-45.865 45.865-45.865 45.865 20.574 45.865 45.864-20.575 45.866-45.865 45.866z"></path><path d="m265.23 322.31c-2.096-5.031-8.018-7.497-13.06-5.41-5.034 2.084-7.474 8.037-5.4 13.06 2.081 5.04 8.015 7.489 13.05 5.41 5.053-2.087 7.477-8.018 5.41-13.06z"></path></g></g></svg>